<?xml version="1.0" encoding="UTF-8"?>
<svg id="Livello_1" data-name="Livello 1" xmlns="http://www.w3.org/2000/svg" version="1.1" viewBox="0 0 595.28 841.89">
  <defs>
    <style>
      .cls-1 {
        fill: #fff;
        stroke-width: 0px;
      }
    </style>
  </defs>
  <path class="cls-1" d="M101.4,478.91l-3.48-18.38h-26.17l-3.48,18.38h-22.52l22.36-115.93h34.28l21.2,115.93h-22.19ZM84.51,384.51l-6.46,38.59-3.64,19.71h20.7l-3.81-19.71-6.46-38.59h-.33ZM133.24,362.98h44.05c6.96,2.32,12.86,6.62,17.72,12.92,4.97,6.18,7.45,13.8,7.45,22.85,0,14.79-5.85,25.67-17.55,32.63l16.73,47.53h-23.19l-14.08-42.23h-8.78v42.23h-22.36v-115.93ZM155.6,382.85v35.28h14.24c1.88-.44,3.92-2.32,6.13-5.63,2.32-3.42,3.48-7.4,3.48-11.92s-.99-8.5-2.98-11.92c-1.88-3.42-3.75-5.35-5.63-5.8h-15.24ZM231.53,382.85h-25.01v-19.87h72.54v19.87h-25.01v96.05h-22.52v-96.05ZM274.08,454.4h23.85v24.51h-23.85v-24.51ZM312.44,478.91v-115.93h22.69v96.72h34.45v19.21h-57.14ZM380.85,478.91v-115.93h22.69v115.93h-22.69ZM430.1,362.98h39.75v19.87h-31.8l-.5.99,26.5,48.36c5.41,9.72,8.11,17.11,8.11,22.19,0,11.15-3.7,19.32-11.1,24.51h-43.89v-19.21h34.28l.5-.99-29.81-53.49c-4.31-7.73-6.46-14.02-6.46-18.88,0-11.48,4.8-19.27,14.41-23.35ZM502.42,382.85h-25.01v-19.87h72.54v19.87h-25.01v96.05h-22.52v-96.05Z"/>
</svg>